<svg xmlns="http://www.w3.org/2000/svg" width="100mm" height="100mm" viewBox="0 0 100 100"><path d="M40.135 202.787c-3.234.083-6.482.295-9.668.865-5.125 2.422-10.25 4.854-15.219 7.584-.674.811.174 2.32 1.252 2.008 5.001-.184 10.038.027 15.018.35 4.427.305 8.792.764 13.191 1.334l-31.93 71.818c-.187 1.069.942 1.677 1.844 1.788 3.009.864 6.007 1.798 9.022 2.618 1.196-.007 1.472-1.366 1.897-2.233l31.12-70.007 11.277 4.828c-1.287 2.95-2.66 5.88-3.893 8.844-.124 1.057 1.001 1.571 1.857 1.776 3.049 1.094 6.081 2.265 9.14 3.312 1.145.077 1.533-1.198 1.87-2.05l10.312-23.911c.188-1.1-.987-1.67-1.883-1.846-3.387-1.133-6.76-2.338-10.155-3.427-1.207-.052-1.537 1.323-1.967 2.18l-1.595 3.368c-7.35-3.915-15.046-7.597-23.39-8.702-2.68-.385-5.393-.523-8.1-.497z" style="font-variation-settings:normal;opacity:1;fill:none;fill-opacity:1;stroke:#fff;stroke-width:6;stroke-linecap:round;stroke-linejoin:round;stroke-miterlimit:4;stroke-dasharray:none;stroke-dashoffset:0;stroke-opacity:1;paint-order:normal;stop-color:#000;stop-opacity:1" transform="translate(0 -197)"/></svg>