<svg xmlns="http://www.w3.org/2000/svg" width="100mm" height="100mm" viewBox="0 0 100 100"><path d="M66.257 247.044A16.257 16.257 0 0 1 50 263.302a16.257 16.257 0 0 1-16.257-16.258A16.257 16.257 0 0 1 50 230.787a16.257 16.257 0 0 1 16.257 16.257zm-16.235 40.412c10.42.185 11.983 3.258 12.375-3.107 1.066-10.273 5.233-12.771 11.212-9.044 6.186 3.994 6.22 3.852 13.19-7.297m0 0c4.883-9.208 8.33-9.21 2.832-12.441-8.677-5.602-9.017-10.449-2.987-14.092 6.362-3.707 6.25-3.801-.535-15.065m0 0c-5.42-8.902-3.66-11.867-9.246-8.791-9.25 4.596-13.59 2.412-13.64-4.634.064-7.362-.074-7.315-13.223-7.238m-.022 81.71c-10.42.184-11.983 3.257-12.375-3.108-1.066-10.273-5.233-12.771-11.212-9.044-6.186 3.994-6.22 3.852-13.19-7.297m0 0c-4.883-9.208-8.33-9.21-2.832-12.441 8.677-5.602 9.017-10.449 2.987-14.092-6.362-3.707-6.25-3.801.535-15.065m0 0c5.42-8.902 3.66-11.867 9.246-8.791 9.25 4.596 13.59 2.412 13.64-4.634-.064-7.362.074-7.315 13.223-7.238" style="opacity:1;vector-effect:none;fill:none;fill-opacity:1;fill-rule:nonzero;stroke:#fff;stroke-width:7;stroke-linecap:round;stroke-linejoin:round;stroke-miterlimit:4;stroke-dasharray:none;stroke-dashoffset:0;stroke-opacity:1;paint-order:normal" transform="translate(0 -197)"/></svg>