<svg xmlns="http://www.w3.org/2000/svg" width="100" height="100"><path fill="none" stroke="#414141" stroke-linejoin="round" stroke-width="6.346" d="M90.194 27.96C77.46 5.665 48.96-1.926 26.822 11.083 2.88 24.789-3.74 56.319 12.672 78.497c5.761 8.085 13.443 13.644 22.742 16.677 1.01.202 1.92 0 2.425-.405.506-.505.809-1.01.809-1.819-.025-2.864-.059-5.727-.101-8.591l-1.415.202c-.809.202-2.022.303-3.336.202-1.314 0-2.729-.1-4.144-.404a9.4 9.4 0 0 1-4.042-1.82 7.681 7.681 0 0 1-2.73-3.638l-.606-1.415c-.303-1.01-1.01-2.021-1.82-3.032a7.277 7.277 0 0 0-2.627-2.325l-.404-.303a4.447 4.447 0 0 1-1.415-1.617c0-.303.258-.454.56-.656l1.562-.254 1.213.101c.809.202 1.718.708 3.032 1.516 1.011.809 2.022 1.82 2.83 3.033 1.011 1.718 2.022 3.032 3.336 3.84a7.075 7.075 0 0 0 4.043 1.314 17.18 17.18 0 0 0 3.335-.303c1.01-.202 1.92-.505 2.729-.91a9.804 9.804 0 0 1 3.032-6.165c-2.325-.303-4.447-.606-6.266-1.112-1.82-.505-3.74-1.314-5.66-2.325a16.171 16.171 0 0 1-8.086-10.41c-.708-2.628-1.112-5.66-1.112-9.096 0-4.852 1.516-8.996 4.75-12.432a16.171 16.171 0 0 1 .405-12.23c1.111-.404 2.93-.101 5.154.809a36.285 36.285 0 0 1 7.58 3.941 42.854 42.854 0 0 1 23.247 0l2.224-1.415c1.617-1.01 3.436-1.92 5.559-2.728 2.122-.809 3.74-1.011 4.851-.607 1.82 4.548 2.022 8.591.506 12.23 3.234 3.436 4.86 7.607 4.86 12.459 0 3.436-.514 6.441-1.323 9.07-.809 2.627-1.92 4.75-3.133 6.367-1.314 1.617-3.032 2.93-4.953 4.042-2.021 1.011-3.84 1.82-5.66 2.325-1.819.506-3.84.809-6.165 1.01 2.021 1.82 3.133 4.751 3.133 8.592V92.95c0 .708.202 1.314.708 1.82.505.505 1.314.606 2.425.404 9.299-3.033 16.98-8.693 22.843-16.677 5.862-8.086 8.793-17.182 8.793-27.29 0-8.389-2.022-16.171-6.166-23.246z" style="opacity:1;fill:none;fill-opacity:1;stroke:#8b88bd;stroke-width:4.04287;stroke-linecap:butt;stroke-linejoin:miter;stroke-miterlimit:1.4;stroke-dasharray:none;stroke-dashoffset:0;stroke-opacity:1"/></svg>