<svg xmlns="http://www.w3.org/2000/svg" width="100mm" height="100mm" viewBox="0 0 100 100"><g transform="translate(0 -197)"><circle cx="50" cy="247" r="48.512" style="fill:#2d2d47;stroke-width:4.99999;stroke-linecap:round;stroke-linejoin:round;stroke-miterlimit:4;stroke-dasharray:none;stop-color:#000;fill-opacity:1"/><path d="M45.866 218.757c-2.223.057-4.454.202-6.644.594-3.521 1.664-7.043 3.336-10.458 5.212-.463.557.12 1.594.86 1.38 3.437-.127 6.899.018 10.32.24 3.042.21 6.042.525 9.065.916l-21.941 49.352c-.128.734.647 1.152 1.267 1.228 2.067.594 4.127 1.236 6.2 1.8.821-.005 1.01-.94 1.303-1.535l21.385-48.107 7.75 3.318c-.885 2.028-1.828 4.04-2.676 6.077-.085.727.688 1.08 1.276 1.22 2.095.752 4.179 1.557 6.28 2.276.788.054 1.054-.823 1.286-1.408l7.086-16.431c.13-.756-.678-1.148-1.294-1.268-2.327-.78-4.645-1.608-6.978-2.356-.83-.035-1.056.91-1.352 1.498l-1.096 2.315c-5.05-2.69-10.339-5.22-16.072-5.98-1.843-.264-3.707-.36-5.567-.341z" style="font-variation-settings:normal;opacity:1;fill:none;fill-opacity:1;stroke:#fff;stroke-width:4.12301;stroke-linecap:round;stroke-linejoin:round;stroke-miterlimit:4;stroke-dasharray:none;stroke-dashoffset:0;stroke-opacity:1;paint-order:normal;stop-color:#000;stop-opacity:1"/></g></svg>